<svg version="1.1" id="Layer_1" xmlns="http://www.w3.org/2000/svg" xmlns:xlink="http://www.w3.org/1999/xlink" x="0px" y="0px"
	 width="100%" viewBox="0 0 388 542" enable-background="new 0 0 388 542" xml:space="preserve">
<path fill="#061B2E" opacity="1.000000" stroke="none" 
	d="
M341.000000,543.000000 
	C244.645767,543.000000 148.291550,543.000000 51.218834,542.725647 
	C37.561073,538.856384 26.489687,532.379883 17.804382,521.917053 
	C6.186692,507.921692 3.338977,491.516022 4.268337,473.664581 
	C4.596467,470.646332 4.873186,467.994537 4.874906,465.342590 
	C4.947880,352.827606 5.015191,240.312637 5.005981,127.797653 
	C5.005358,120.179657 4.405668,112.561714 4.054702,104.479477 
	C4.046014,95.028999 4.067220,86.042786 4.265516,76.733948 
	C4.324896,74.255264 4.207183,72.099228 4.050811,69.506569 
	C4.037049,66.731560 4.061948,64.393166 4.272402,61.755730 
	C4.559115,60.550976 4.660274,59.645271 4.805963,58.332932 
	C7.622475,26.878239 36.000397,3.973044 66.326370,2.447983 
	C67.975830,2.797985 69.294472,2.986043 70.613190,2.986578 
	C99.409599,2.998255 128.206024,2.989089 157.470795,2.989232 
	C181.959030,2.991598 205.978897,2.988654 230.467484,2.990867 
	C255.190598,2.996612 279.445038,3.012870 303.699371,2.965329 
	C305.465973,2.961866 307.231659,2.495661 309.453552,2.167285 
	C314.571564,2.250001 319.235565,2.584602 323.895752,2.538343 
	C339.861969,2.379854 353.819763,7.842356 365.829895,18.026676 
	C376.275604,26.884405 383.000427,38.131645 385.029419,52.299240 
	C385.536530,53.769760 386.056488,54.836243 386.762756,56.118454 
	C386.914581,56.894859 386.880066,57.455544 386.577789,58.332031 
	C386.205872,60.299805 386.010681,61.951771 386.010529,63.603752 
	C385.996857,205.070236 385.998322,346.536713 386.002686,488.287781 
	C386.021149,488.761536 386.035675,488.950684 386.050842,489.339996 
	C386.051453,489.540131 386.128510,489.932892 385.827454,490.168457 
	C383.742737,497.009949 381.959137,503.615875 380.161041,510.166931 
	C380.146545,510.112091 380.256836,510.138611 379.904480,510.224792 
	C378.901306,511.999298 378.250427,513.687683 377.555237,515.401611 
	C377.510925,515.427185 377.513550,515.529419 377.181946,515.505249 
	C376.607269,516.044800 376.364166,516.608459 376.109680,517.121704 
	C376.098267,517.071228 376.200775,517.084961 375.923615,517.211792 
	C375.483276,517.699890 375.320099,518.061096 374.941833,518.670410 
	C372.832825,521.337158 371.221497,524.061584 368.994415,526.119751 
	C360.844696,533.651367 351.546722,539.388977 341.000000,543.000000 
M33.001469,102.983765 
	C33.001469,102.983765 33.027645,102.962646 33.008514,103.904465 
	C33.005089,182.816147 33.001495,261.727814 32.998310,340.639496 
	C32.996483,385.922150 32.926811,431.205048 33.083912,476.487152 
	C33.102745,481.915527 33.011829,487.743530 38.005772,492.643219 
	C38.149208,493.285645 38.129055,494.031342 38.459995,494.555359 
	C46.835583,507.816986 59.293720,513.211060 74.539261,513.179138 
	C109.527283,513.105835 144.515289,512.966003 179.503311,512.966858 
	C226.821915,512.967957 274.140839,513.184204 321.458893,513.051453 
	C331.667725,513.022827 341.038940,509.800537 348.118958,501.896057 
	C354.722748,494.523376 356.283630,485.539825 356.275024,475.957703 
	C356.205414,398.479645 356.228210,321.001465 356.227783,243.523346 
	C356.227478,186.372787 356.285645,129.222137 356.201752,72.071709 
	C356.181366,58.186787 351.907166,46.285549 339.352570,38.568840 
	C338.128723,38.142773 336.904907,37.716705 335.827545,37.241947 
	C335.827545,37.241947 335.787109,37.390934 335.587860,36.678120 
	C332.718262,35.777740 329.848633,34.877361 326.391022,33.391926 
	C325.079834,33.261536 323.768677,33.017303 322.457458,33.017021 
	C238.540131,32.998878 154.622803,32.995293 70.705498,33.040752 
	C69.138512,33.041599 67.571861,33.645496 66.115295,34.668812 
	C66.168541,34.899208 66.221794,35.129608 66.196548,35.264019 
	C66.196548,35.264019 66.320381,35.270260 65.442680,35.103912 
	C63.301620,35.685413 61.160557,36.266911 58.242184,37.078396 
	C56.861668,37.378742 55.243179,37.314411 54.137493,38.035923 
	C43.248505,45.141533 35.225079,54.171661 34.337276,68.086761 
	C34.337276,68.086761 33.957180,68.106331 33.799839,67.633995 
	C33.623505,67.337814 33.374989,67.126579 32.436314,67.571983 
	C32.295658,78.648605 32.136497,89.725082 32.056580,100.802147 
	C32.051327,101.529907 32.651817,102.262039 33.001469,102.983765 
z"/>
<path fill="#FDFDFD" opacity="1.000000" stroke="none" 
	d="
M4.086847,62.054775 
	C4.061948,64.393166 4.037049,66.731560 3.958483,69.944633 
	C3.966019,72.898399 4.027222,74.977493 4.088425,77.056580 
	C4.067220,86.042786 4.046014,95.028999 3.957806,104.944458 
	C3.916448,213.945709 3.937937,322.017731 3.972640,430.089722 
	C3.977343,444.736816 4.048350,459.383881 4.088656,474.030975 
	C3.338977,491.516022 6.186692,507.921692 17.804382,521.917053 
	C26.489687,532.379883 37.561073,538.856384 50.750175,542.725647 
	C34.337978,543.000000 17.675953,543.000000 1.010447,543.000000 
	C1.006965,362.388306 1.006965,181.776611 1.006965,1.082463 
	C130.242279,1.082463 259.484650,1.082463 388.863495,1.082463 
	C388.863495,181.666595 388.863495,362.333282 388.863495,543.000000 
	C373.261871,543.000000 357.599609,543.000000 341.468658,543.000000 
	C351.546722,539.388977 360.844696,533.651367 368.994415,526.119751 
	C371.221497,524.061584 372.832825,521.337158 375.210388,518.539795 
	C375.862915,517.802368 376.031830,517.443665 376.200745,517.084961 
	C376.200775,517.084961 376.098267,517.071228 376.369385,517.014893 
	C376.931488,516.482178 377.222504,516.005798 377.513550,515.529419 
	C377.513550,515.529419 377.510925,515.427185 377.758728,515.145630 
	C378.756622,513.288879 379.506744,511.713745 380.256836,510.138611 
	C380.256836,510.138611 380.146545,510.112091 380.466980,509.978577 
	C382.567810,503.207672 384.348145,496.570282 386.128479,489.932892 
	C386.128510,489.932892 386.051453,489.540131 386.311005,489.240845 
	C386.658112,488.622681 386.745667,488.303802 386.906677,487.522339 
	C386.985321,345.040894 386.990875,203.022034 386.989563,61.003170 
	C386.989563,60.007523 386.895630,59.011875 386.845551,58.016228 
	C386.880066,57.455544 386.914581,56.894859 386.641174,55.755684 
	C385.902924,54.083195 385.472565,52.989201 385.042206,51.895203 
	C383.000427,38.131645 376.275604,26.884405 365.829895,18.026676 
	C353.819763,7.842356 339.861969,2.379854 323.895752,2.538343 
	C319.235565,2.584602 314.571564,2.250001 308.990662,2.081198 
	C282.045441,2.103707 256.018860,2.134990 229.528976,2.094462 
	C205.045853,2.071092 181.026031,2.119532 156.543152,2.088432 
	C126.051933,2.072162 96.023750,2.135431 65.995575,2.198700 
	C36.000397,3.973044 7.622475,26.878239 4.538944,58.575348 
	C4.180546,60.167854 4.133697,61.111313 4.086847,62.054775 
z"/>
<path fill="#FEFEFE" opacity="1.000000" stroke="none" 
	d="
M338.975098,39.015121 
	C351.907166,46.285549 356.181366,58.186787 356.201752,72.071709 
	C356.285645,129.222137 356.227478,186.372787 356.227783,243.523346 
	C356.228210,321.001465 356.205414,398.479645 356.275024,475.957703 
	C356.283630,485.539825 354.722748,494.523376 348.118958,501.896057 
	C341.038940,509.800537 331.667725,513.022827 321.458893,513.051453 
	C274.140839,513.184204 226.821915,512.967957 179.503311,512.966858 
	C144.515289,512.966003 109.527283,513.105835 74.539261,513.179138 
	C59.293720,513.211060 46.835583,507.816986 38.459995,494.555359 
	C38.129055,494.031342 38.149208,493.285645 37.709442,491.970123 
	C36.915993,489.734009 36.055218,488.187836 35.981789,486.605164 
	C35.559502,477.503082 35.071823,468.392609 35.064014,459.284576 
	C34.993042,376.499390 35.050255,293.714081 34.999996,210.928879 
	C34.971081,163.294876 34.813057,115.660934 34.713150,68.026970 
	C35.225079,54.171661 43.248505,45.141533 54.137493,38.035923 
	C55.243179,37.314411 56.861668,37.378742 59.013153,36.951309 
	C61.962872,36.306232 64.141624,35.788246 66.320381,35.270260 
	C66.320381,35.270260 66.196548,35.264019 66.685226,35.321770 
	C151.149979,35.362999 235.126099,35.307331 319.102020,35.418579 
	C324.664581,35.425949 330.225464,36.703945 335.787109,37.390934 
	C335.787109,37.390934 335.827545,37.241947 335.956116,37.511200 
	C337.048157,38.192005 338.011627,38.603561 338.975098,39.015121 
M154.201324,204.895874 
	C154.201324,204.895874 154.440491,204.599182 154.285736,204.176544 
	C154.129700,203.912277 153.921295,203.699265 153.551453,203.468704 
	C153.551453,203.468704 153.506470,203.347855 153.198532,202.917862 
	C152.800323,202.597458 152.402115,202.277054 151.886002,201.459824 
	C151.597290,201.307480 151.308578,201.155121 150.792084,200.454834 
	C150.281189,200.161789 149.770294,199.868729 149.197403,199.760880 
	C149.197403,199.760880 149.390366,199.730789 149.116699,199.212753 
	C148.770737,199.035599 148.424789,198.858444 147.773041,198.084930 
	C140.388580,192.892975 132.376923,190.223892 123.155426,190.297470 
	C99.319717,190.487701 78.312828,213.404480 83.493835,239.796021 
	C87.055885,257.940735 99.642570,267.625183 117.928558,271.977417 
	C125.305794,272.187958 132.682495,272.395264 138.975433,268.359497 
	C138.975433,268.359497 139.369141,268.481293 139.874130,268.335846 
	C140.356537,268.135315 140.838943,267.934753 141.552780,267.674622 
	C141.552780,267.674622 141.738190,267.523804 142.221191,267.303131 
	C142.712311,266.878815 143.203415,266.454498 144.094193,265.442749 
	C152.295715,260.757111 158.241074,254.186996 161.797577,244.738464 
	C165.290787,234.206009 165.362274,223.853790 160.135818,213.895996 
	C160.135818,213.895996 160.255157,213.875549 160.134384,213.257980 
	C159.803360,212.771179 159.472351,212.284363 159.114258,211.916168 
	C159.114258,211.916168 159.234924,211.900635 159.095764,211.300201 
	C158.746399,210.835114 158.397018,210.370026 158.018250,209.974731 
	C158.018250,209.974731 158.093903,209.971527 157.979492,209.422989 
	C157.719406,209.177689 157.459320,208.932404 157.169647,208.856689 
	C157.169647,208.856689 157.337708,208.819397 157.166733,208.244324 
	C156.783676,207.813904 156.400635,207.383469 155.995346,206.997879 
	C155.995346,206.997879 156.044907,206.990692 155.923492,206.453995 
	C155.651733,206.225159 155.379974,205.996323 155.080612,205.908325 
	C155.080612,205.908325 155.223846,205.899323 155.100922,205.365814 
	C154.866364,205.100220 154.631805,204.834625 154.201324,204.895874 
M296.061768,202.935074 
	C296.061768,202.935074 296.170502,202.921341 295.992035,202.397644 
	C295.682617,202.212494 295.373199,202.027328 295.051270,201.943130 
	C295.051270,201.943130 295.152435,201.932419 294.978241,201.410919 
	C294.669037,201.229416 294.359802,201.047913 294.041718,200.955200 
	C294.041718,200.955200 294.130432,200.945526 293.952789,200.431000 
	C293.646149,200.254410 293.339478,200.077835 293.017120,199.977295 
	C293.017120,199.977295 293.089355,199.948807 292.906860,199.433334 
	C292.463867,199.119049 292.020905,198.804764 291.462219,198.457962 
	C291.462219,198.457962 291.387878,198.363495 291.073181,198.007339 
	C290.805084,197.823166 290.508881,197.718323 290.152588,197.826355 
	C290.152588,197.826355 290.284576,197.788483 290.045776,197.287689 
	C289.703766,197.170609 289.361725,197.053528 289.016235,197.001678 
	C289.016235,197.001678 289.069153,196.963348 288.740265,196.445511 
	C288.174835,196.236725 287.609375,196.027924 286.652069,195.232346 
	C276.135223,189.834213 265.381134,188.700775 253.986938,192.537384 
	C229.176514,200.891434 218.337952,233.832535 233.412857,255.112900 
	C240.262192,264.781677 250.082230,269.132599 261.931854,272.013306 
	C270.874878,272.315369 279.636414,271.841888 287.071594,266.081238 
	C287.071594,266.081238 287.078003,266.179657 287.713531,266.048431 
	C288.544891,265.415009 289.376251,264.781586 290.083832,264.120178 
	C290.083832,264.120178 290.099884,264.246063 290.692230,264.039581 
	C290.962982,263.739075 291.233704,263.438538 291.946442,262.684509 
	C294.306152,260.329437 296.665863,257.974365 299.529083,255.492447 
	C299.756226,255.032333 299.983368,254.572205 300.115021,254.091858 
	C300.115021,254.091858 300.139160,254.186432 300.626556,253.998230 
	C300.916840,253.566376 301.207123,253.134537 301.676544,252.527679 
	C301.676544,252.527679 301.752930,252.289215 301.999664,251.936234 
	C302.062866,251.656128 302.128326,251.376541 302.103699,251.080536 
	C302.103699,251.080536 302.126221,251.171661 302.762054,250.825287 
	C308.841248,238.207184 310.222168,225.536942 303.150238,212.881195 
	C303.150238,212.881195 303.260864,212.857407 303.145538,212.246658 
	C302.808044,211.770355 302.470551,211.294037 302.103271,210.910461 
	C302.103271,210.910461 302.200012,210.899033 302.125763,210.460831 
	C302.098175,210.150696 301.970886,209.889099 301.655121,209.455063 
	C301.655121,209.455063 301.482117,209.291443 301.224060,208.840134 
	C300.880920,208.480682 300.537811,208.121231 300.164307,207.875488 
	C300.164307,207.875488 300.277710,207.844025 300.133301,207.253860 
	C299.764771,206.817337 299.396210,206.380829 298.999176,205.996246 
	C298.999176,205.996246 299.054108,205.974091 298.863495,205.405457 
	C298.272583,204.888046 297.681641,204.370651 297.070801,203.938431 
	C297.070801,203.938431 297.157867,203.929947 296.995728,203.397675 
	C296.688904,203.207230 296.382080,203.016769 296.061768,202.935074 
M154.058838,317.944214 
	C154.058838,317.944214 154.163498,317.929871 153.969711,317.411194 
	C153.662811,317.226227 153.355896,317.041229 153.043655,316.960724 
	C153.043655,316.960724 153.147507,316.948364 152.957642,316.429047 
	C152.659470,316.227936 152.361298,316.026825 152.046844,315.942963 
	C152.046844,315.942963 152.165100,315.937195 152.002457,315.377991 
	C151.687607,315.178589 151.372757,314.979156 150.778244,314.178558 
	C139.561325,303.737610 126.284828,301.613922 112.095322,305.643402 
	C89.474777,312.067047 76.750191,337.457092 85.032303,359.619934 
	C89.730171,372.191406 98.769768,380.616821 112.629898,384.502258 
	C121.386002,386.938782 129.910034,385.987000 138.547333,382.673859 
	C138.547333,382.673859 138.729965,382.462341 139.336319,382.183655 
	C141.611496,380.830231 143.886688,379.476837 146.068726,378.074249 
	C146.068726,378.074249 146.098877,378.175171 146.640732,378.071198 
	C146.992661,377.710999 147.344589,377.350830 148.074081,376.414520 
	C150.393265,374.197998 152.712463,371.981445 155.638870,369.704651 
	C156.138809,368.829285 156.638748,367.953918 157.047760,367.051788 
	C157.047760,367.051788 157.086655,367.138245 157.704666,366.814789 
	C165.993652,352.608826 166.619171,338.228546 158.606857,323.489777 
	C158.606857,323.489777 158.502777,323.340302 158.220245,322.892029 
	C157.864532,322.523743 157.508820,322.155426 157.120148,321.891754 
	C157.120148,321.891754 157.228683,321.875916 157.084198,321.340271 
	C156.814499,321.105469 156.544800,320.870697 156.232849,320.791290 
	C156.232849,320.791290 156.385208,320.739197 156.194595,320.192078 
	C155.801193,319.782806 155.407806,319.373505 154.993256,318.994354 
	C154.993256,318.994354 155.029800,318.991425 154.941620,318.447906 
	C154.650757,318.244965 154.359879,318.042023 154.058838,317.944214 
M295.999176,315.998871 
	C295.999176,315.998871 296.053467,315.981659 295.897369,315.473846 
	C295.600250,315.299805 295.303162,315.125732 294.868011,314.472870 
	C294.664490,314.176056 294.383026,314.018677 293.856964,313.481964 
	C293.431396,313.147858 293.005829,312.813751 292.473480,312.481903 
	C292.473480,312.481903 292.428894,312.384857 292.139038,312.000000 
	C291.914215,311.744446 291.632050,311.604828 291.240387,311.724274 
	C291.240387,311.724274 291.381104,311.665771 291.072327,311.212555 
	C290.725372,311.104950 290.378418,310.997375 290.031097,310.969574 
	C290.031097,310.969574 290.109863,310.956909 289.926239,310.455597 
	C289.611603,310.317780 289.296936,310.179932 288.994019,309.995209 
	C288.994019,309.995209 288.955872,310.025024 288.677643,309.496826 
	C288.123871,309.302490 287.570099,309.108185 286.662842,308.291138 
	C276.746643,303.476044 266.484497,302.608368 255.905457,305.666199 
	C230.176743,313.102844 219.364304,343.399689 231.598831,365.576202 
	C237.168472,375.671753 245.924591,382.457153 258.242706,384.760559 
	C263.938263,384.714996 269.633820,384.669403 275.663696,384.667572 
	C275.663696,384.667572 275.925232,384.454834 275.973083,384.431366 
	C275.973083,384.431366 276.024078,384.447052 276.832306,384.438629 
	C287.475922,381.873444 295.141144,375.279846 301.774353,366.059296 
	C308.952789,352.863190 310.544769,339.467590 303.179504,325.866852 
	C303.179504,325.866852 303.293488,325.834106 303.167542,325.225250 
	C302.834229,324.745941 302.500946,324.266632 302.135712,323.884125 
	C302.135712,323.884125 302.235229,323.862061 302.162628,323.441772 
	C302.127686,323.145599 302.000366,322.896698 301.693451,322.417480 
	C301.693451,322.417480 301.465912,322.236206 301.210083,321.798920 
	C300.840271,321.481964 300.470490,321.164978 300.079803,320.934204 
	C300.079803,320.934204 300.167847,320.923828 300.027222,320.399445 
	C299.795135,320.141663 299.563049,319.883881 299.184387,319.839417 
	C299.184387,319.839417 299.381012,319.671112 299.209503,319.186737 
	C298.944977,318.978973 298.680481,318.771179 298.187378,318.916595 
	C298.187378,318.916595 298.454681,318.591736 298.215149,318.092255 
	C297.804535,317.737640 297.393951,317.383057 297.002594,317.001587 
	C297.002594,317.001587 296.972198,317.013153 296.866852,316.499817 
	C296.583954,316.314941 296.301086,316.130035 295.999176,315.998871 
M151.120758,88.204796 
	C150.774414,88.029007 150.428070,87.853218 149.854401,87.058975 
	C136.671249,75.259399 116.267540,73.781380 101.294647,84.742035 
	C85.179283,96.539001 80.574883,109.886192 83.530724,127.074852 
	C86.379959,143.643524 97.443542,154.128815 115.252182,158.833572 
	C121.563286,158.381165 127.874397,157.928757 134.432907,157.704895 
	C134.432907,157.704895 134.755707,157.608841 135.325974,157.429535 
	C135.928207,156.978149 136.530426,156.526764 137.034134,156.061523 
	C137.034134,156.061523 137.040939,156.160767 137.684769,156.031494 
	C138.161118,155.702133 138.637466,155.372757 139.799789,154.775024 
	C142.506073,153.390030 145.557556,152.418579 147.833862,150.518463 
	C150.885468,147.971161 153.337296,144.705338 156.591492,141.740829 
	C156.872665,141.278046 157.153839,140.815247 157.206436,139.988068 
	C157.206436,139.988068 157.404022,140.370071 157.918121,139.904770 
	C165.632538,125.952019 167.063644,111.873230 158.670456,97.398232 
	C158.670456,97.398232 158.523865,97.230263 158.269913,96.782700 
	C157.932999,96.419823 157.596100,96.056946 157.218277,95.836815 
	C157.218277,95.836815 157.361053,95.796036 157.196014,95.207344 
	C156.815002,94.770630 156.434006,94.333923 156.032120,93.972321 
	C156.032120,93.972321 156.109955,93.968132 155.955414,93.433441 
	C155.674149,93.209595 155.392899,92.985748 155.087662,92.906082 
	C155.087662,92.906082 155.233063,92.891235 155.091919,92.356842 
	C154.847137,92.096893 154.602341,91.836952 154.282150,91.731697 
	C154.282150,91.731697 154.426590,91.638130 154.200195,91.155464 
	C153.911804,90.957382 153.623398,90.759308 153.278046,90.713409 
	C153.278046,90.713409 153.427414,90.649437 153.209579,90.163353 
	C152.928329,89.955269 152.647079,89.747192 152.304398,89.684120 
	C152.304398,89.684120 152.444778,89.612732 152.188995,89.136627 
	C151.884933,88.952988 151.580887,88.769341 151.221130,88.761826 
	C151.221130,88.761826 151.400925,88.719398 151.120758,88.204796 
M224.079865,472.077026 
	C224.079865,472.077026 224.096725,472.206055 224.621750,472.017548 
	C224.828796,471.721313 225.035828,471.425110 225.111832,471.106964 
	C225.111832,471.106964 225.136749,471.237488 225.642242,471.017181 
	C225.799484,470.692230 225.956726,470.367279 226.033401,470.033173 
	C226.033401,470.033173 226.062012,470.109070 226.530014,469.908325 
	C226.850540,469.515381 227.171066,469.122437 227.679230,468.555908 
	C227.679230,468.555908 227.764648,468.314972 228.012665,467.952118 
	C228.088150,467.668671 228.158218,467.383911 228.109512,467.082367 
	C228.109512,467.082367 228.135361,467.193817 228.659531,466.961639 
	C228.952103,466.471375 229.244675,465.981110 229.367432,465.377747 
	C229.367432,465.377747 229.567505,465.417755 229.918915,465.053436 
	C230.011917,464.729797 230.104904,464.406128 230.091461,464.075043 
	C230.091461,464.075043 230.119644,464.177948 230.671692,463.886536 
	C230.882721,463.304504 231.093750,462.722473 231.166046,462.117035 
	C231.166046,462.117035 231.203674,462.252594 231.720245,461.957489 
	C231.862137,461.388672 232.004028,460.819885 232.753860,459.799866 
	C235.104355,452.864471 236.393860,446.035156 235.177750,438.459717 
	C231.742126,417.058075 217.961594,404.190918 196.577805,402.795227 
	C172.830582,401.245239 146.896423,426.933228 157.566910,458.120087 
	C161.341446,469.151947 168.920547,476.679626 180.062119,481.779022 
	C190.520065,485.021881 200.937500,486.100189 211.125443,481.158539 
	C211.125443,481.158539 211.149536,481.279358 211.765427,481.165497 
	C212.261688,480.845703 212.757965,480.525909 213.123230,480.172791 
	C213.123230,480.172791 213.153488,480.304535 213.761749,480.162537 
	C214.240646,479.820953 214.719528,479.479401 215.091690,479.108246 
	C215.091690,479.108246 215.104980,479.218201 215.530457,479.137726 
	C215.830093,479.113129 216.090958,478.999542 216.597382,478.713226 
	C216.597382,478.713226 216.787674,478.486023 217.213974,478.213226 
	C217.546967,477.858917 217.879944,477.504608 218.098267,477.125122 
	C218.098267,477.125122 218.120987,477.240295 218.755264,477.088623 
	C219.551224,476.404694 220.347183,475.720734 221.596924,474.961670 
	C221.908844,474.811676 222.063461,474.563629 222.585083,474.003571 
	C222.787796,473.694672 222.990494,473.385803 223.069885,473.063354 
	C223.069885,473.063354 223.084885,473.186523 223.605774,472.993927 
	C223.806808,472.693878 224.007858,472.393799 224.079865,472.077026 
M297.609100,144.999893 
	C297.799744,144.689804 297.990387,144.379715 298.078339,144.061798 
	C298.078339,144.061798 298.100647,144.162384 298.601044,143.947372 
	C298.731659,143.624985 298.862244,143.302612 299.474731,142.660446 
	C299.724091,142.146606 299.973450,141.632782 300.123749,141.096405 
	C300.123749,141.096405 300.148438,141.194962 300.730530,140.915359 
	C301.247101,139.997818 301.763672,139.080276 302.172546,138.132751 
	C302.172546,138.132751 302.208191,138.238739 302.755341,137.913513 
	C302.897705,137.298218 303.040070,136.682922 303.083191,136.065384 
	C303.083191,136.065384 303.112701,136.160126 303.727966,135.761215 
	C303.988190,135.166107 304.299652,134.587769 304.500977,133.973358 
	C307.551666,124.662186 310.441101,115.343452 305.005798,105.106071 
	C303.534821,101.709190 302.628265,97.901695 300.503296,94.980606 
	C283.988007,72.278206 251.829407,69.944839 233.506454,96.154343 
	C222.292419,112.195160 224.000397,139.124954 244.109055,152.651642 
	C244.719666,152.827042 245.330261,153.002441 245.947800,153.076004 
	C245.947800,153.076004 245.847855,153.096756 246.161102,153.693420 
	C247.380936,154.240250 248.600769,154.787079 249.856506,155.198380 
	C249.856506,155.198380 249.721405,155.235764 250.174667,155.817154 
	C254.111465,156.823959 258.048248,157.830780 262.839752,158.995041 
	C266.361023,158.657959 269.958588,158.662582 273.384216,157.897354 
	C277.673645,156.939178 281.821808,155.348785 286.563721,153.979279 
	C286.809570,153.743088 287.055389,153.506897 287.164246,153.230087 
	C287.164246,153.230087 287.207947,153.366119 287.804779,153.202148 
	C288.254791,152.832352 288.704834,152.462570 289.055328,152.074341 
	C289.055328,152.074341 289.064819,152.175095 289.600494,152.000198 
	C289.851715,151.740784 290.102966,151.481369 290.174683,151.192047 
	C290.174683,151.192047 290.222900,151.367523 290.839203,151.183395 
	C291.611938,150.486740 292.384674,149.790100 293.055511,149.073242 
	C293.055511,149.073242 293.063019,149.176819 293.603027,148.979996 
	C293.819885,148.674072 294.036743,148.368149 294.685822,147.988434 
	C294.970459,147.821350 295.097687,147.573471 295.598328,147.021301 
	C295.811432,146.712051 296.024536,146.402802 296.087158,146.077820 
	C296.087158,146.077820 296.106812,146.227844 296.628113,146.019394 
	C296.821503,145.706863 297.014893,145.394348 297.072876,145.067413 
	C297.072876,145.067413 297.088501,145.202652 297.609100,144.999893 
z"/>
<path fill="#050B17" opacity="1.000000" stroke="none" 
	d="
M34.525215,68.056870 
	C34.813057,115.660934 34.971081,163.294876 34.999996,210.928879 
	C35.050255,293.714081 34.993042,376.499390 35.064014,459.284576 
	C35.071823,468.392609 35.559502,477.503082 35.981789,486.605164 
	C36.055218,488.187836 36.915993,489.734009 37.532932,491.637787 
	C33.011829,487.743530 33.102745,481.915527 33.083912,476.487152 
	C32.926811,431.205048 32.996483,385.922150 32.998310,340.639496 
	C33.001495,261.727814 33.005089,182.816147 33.302582,103.137405 
	C33.716827,90.949005 33.837002,79.527664 33.957180,68.106331 
	C33.957180,68.106331 34.337276,68.086761 34.525215,68.056870 
z"/>
<path fill="#010101" opacity="1.000000" stroke="none" 
	d="
M386.577789,58.332031 
	C386.895630,59.011875 386.989563,60.007523 386.989563,61.003170 
	C386.990875,203.022034 386.985321,345.040894 386.698242,487.529419 
	C386.416412,487.999084 385.998718,488.003204 385.998718,488.003204 
	C385.998322,346.536713 385.996857,205.070236 386.010529,63.603752 
	C386.010681,61.951771 386.205872,60.299805 386.577789,58.332031 
z"/>
<path fill="#5F5F5F" opacity="1.000000" stroke="none" 
	d="
M4.268337,473.664581 
	C4.048350,459.383881 3.977343,444.736816 3.972640,430.089722 
	C3.937937,322.017731 3.916448,213.945709 3.987699,105.408722 
	C4.405668,112.561714 5.005358,120.179657 5.005981,127.797653 
	C5.015191,240.312637 4.947880,352.827606 4.874906,465.342590 
	C4.873186,467.994537 4.596467,470.646332 4.268337,473.664581 
z"/>
<path fill="#010103" opacity="1.000000" stroke="none" 
	d="
M335.687500,37.034527 
	C330.225464,36.703945 324.664581,35.425949 319.102020,35.418579 
	C235.126099,35.307331 151.149979,35.362999 66.724472,35.369759 
	C66.221794,35.129608 66.168541,34.899208 66.528000,34.330696 
	C153.620148,33.987381 240.299591,33.982178 326.979034,33.976982 
	C329.848633,34.877361 332.718262,35.777740 335.687500,37.034527 
z"/>
<path fill="#0F2537" opacity="1.000000" stroke="none" 
	d="
M326.685028,33.684452 
	C240.299591,33.982178 153.620148,33.987381 66.472885,33.980301 
	C67.571861,33.645496 69.138512,33.041599 70.705498,33.040752 
	C154.622803,32.995293 238.540131,32.998878 322.457458,33.017021 
	C323.768677,33.017303 325.079834,33.261536 326.685028,33.684452 
z"/>
<path fill="#151516" opacity="1.000000" stroke="none" 
	d="
M66.326370,2.447983 
	C96.023750,2.135431 126.051933,2.072162 156.541763,2.292418 
	C157.003418,2.575943 157.002441,2.983923 157.002441,2.983923 
	C128.206024,2.989089 99.409599,2.998255 70.613190,2.986578 
	C69.294472,2.986043 67.975830,2.797985 66.326370,2.447983 
z"/>
<path fill="#171718" opacity="1.000000" stroke="none" 
	d="
M229.992264,2.166273 
	C256.018860,2.134990 282.045441,2.103707 308.534912,2.158510 
	C307.231659,2.495661 305.465973,2.961866 303.699371,2.965329 
	C279.445038,3.012870 255.190598,2.996612 230.466415,2.786088 
	C229.996643,2.576153 229.992264,2.166273 229.992264,2.166273 
z"/>
<path fill="#0D0D0E" opacity="1.000000" stroke="none" 
	d="
M229.528976,2.094462 
	C229.992264,2.166273 229.996643,2.576153 229.997711,2.780931 
	C205.978897,2.988654 181.959030,2.991598 157.470795,2.989232 
	C157.002441,2.983923 157.003418,2.575943 157.004807,2.371957 
	C181.026031,2.119532 205.045853,2.071092 229.528976,2.094462 
z"/>
<path fill="#000005" opacity="1.000000" stroke="none" 
	d="
M33.878510,67.870163 
	C33.837002,79.527664 33.716827,90.949005 33.312149,102.666489 
	C33.027645,102.962646 33.001469,102.983765 32.995026,102.520477 
	C33.010483,90.371567 33.032383,78.685928 33.054287,67.000298 
	C33.374989,67.126579 33.623505,67.337814 33.878510,67.870163 
z"/>
<path fill="#0C2437" opacity="1.000000" stroke="none" 
	d="
M32.745300,67.286140 
	C33.032383,78.685928 33.010483,90.371567 32.979565,102.524666 
	C32.651817,102.262039 32.051327,101.529907 32.056580,100.802147 
	C32.136497,89.725082 32.295658,78.648605 32.745300,67.286140 
z"/>
<path fill="#0B1119" opacity="1.000000" stroke="none" 
	d="
M385.827423,490.168457 
	C384.348145,496.570282 382.567810,503.207672 380.481506,510.033417 
	C381.959137,503.615875 383.742737,497.009949 385.827423,490.168457 
z"/>
<path fill="#010103" opacity="1.000000" stroke="none" 
	d="
M65.881531,35.187088 
	C64.141624,35.788246 61.962872,36.306232 59.401810,36.836315 
	C61.160557,36.266911 63.301620,35.685413 65.881531,35.187088 
z"/>
<path fill="#0B1119" opacity="1.000000" stroke="none" 
	d="
M379.904510,510.224792 
	C379.506744,511.713745 378.756622,513.288879 377.803040,515.119995 
	C378.250427,513.687683 378.901306,511.999298 379.904510,510.224792 
z"/>
<path fill="#5F5F5F" opacity="1.000000" stroke="none" 
	d="
M4.265516,76.733948 
	C4.027222,74.977493 3.966019,72.898399 3.997143,70.381248 
	C4.207183,72.099228 4.324896,74.255264 4.265516,76.733948 
z"/>
<path fill="#010103" opacity="1.000000" stroke="none" 
	d="
M339.163818,38.791977 
	C338.011627,38.603561 337.048157,38.192005 335.882874,37.535545 
	C336.904907,37.716705 338.128723,38.142773 339.163818,38.791977 
z"/>
<path fill="#010101" opacity="1.000000" stroke="none" 
	d="
M385.029419,52.299240 
	C385.472565,52.989201 385.902924,54.083195 386.454865,55.539959 
	C386.056488,54.836243 385.536530,53.769760 385.029419,52.299240 
z"/>
<path fill="#5F5F5F" opacity="1.000000" stroke="none" 
	d="
M4.272402,61.755730 
	C4.133697,61.111313 4.180546,60.167854 4.494414,58.981979 
	C4.660274,59.645271 4.559115,60.550976 4.272402,61.755730 
z"/>
<path fill="#0B1119" opacity="1.000000" stroke="none" 
	d="
M377.181946,515.505249 
	C377.222504,516.005798 376.931488,516.482178 376.380768,517.065308 
	C376.364166,516.608459 376.607269,516.044800 377.181946,515.505249 
z"/>
<path fill="#0B1119" opacity="1.000000" stroke="none" 
	d="
M386.002686,488.287781 
	C385.998718,488.003204 386.416412,487.999084 386.624817,487.992004 
	C386.745667,488.303802 386.658112,488.622681 386.310364,489.040710 
	C386.035675,488.950684 386.021149,488.761536 386.002686,488.287781 
z"/>
<path fill="#0B1119" opacity="1.000000" stroke="none" 
	d="
M375.923584,517.211792 
	C376.031830,517.443665 375.862915,517.802368 375.425476,518.291687 
	C375.320099,518.061096 375.483276,517.699890 375.923584,517.211792 
z"/>
<path fill="#061B2D" opacity="1.000000" stroke="none" 
	d="
M114.736160,158.106827 
	C97.443542,154.128815 86.379959,143.643524 83.530724,127.074852 
	C80.574883,109.886192 85.179283,96.539001 101.294647,84.742035 
	C116.267540,73.781380 136.671249,75.259399 150.088257,87.650200 
	C150.681717,88.400749 151.041321,88.560074 151.400925,88.719398 
	C151.400925,88.719398 151.221130,88.761826 151.304321,88.972824 
	C151.739929,89.326797 152.092346,89.469765 152.444778,89.612732 
	C152.444778,89.612732 152.304398,89.684120 152.354355,89.916290 
	C152.745346,90.315453 153.086380,90.482445 153.427414,90.649437 
	C153.427414,90.649437 153.278046,90.713409 153.335999,90.939774 
	C153.738159,91.323463 154.082382,91.480797 154.426590,91.638123 
	C154.426590,91.638130 154.282150,91.731697 154.321930,91.951065 
	C154.652176,92.410706 154.942612,92.650970 155.233063,92.891235 
	C155.233063,92.891235 155.087662,92.906082 155.179932,93.098511 
	C155.551437,93.516663 155.830704,93.742393 156.109955,93.968132 
	C156.109955,93.968132 156.032120,93.972321 156.059143,94.262558 
	C156.511124,94.967216 156.936096,95.381622 157.361053,95.796036 
	C157.361053,95.796036 157.218277,95.836815 157.198242,96.106461 
	C157.626770,96.660820 158.075317,96.945541 158.523865,97.230255 
	C158.523865,97.230263 158.670456,97.398232 158.525391,97.845047 
	C158.601379,99.050125 158.745392,99.841568 159.055237,100.561646 
	C163.003754,109.737686 164.663742,119.063911 161.193497,128.815445 
	C159.834961,132.633041 158.661682,136.516571 157.404022,140.370071 
	C157.404022,140.370071 157.206436,139.988068 157.029480,140.167664 
	C156.583893,140.814178 156.315262,141.281097 156.046631,141.748016 
	C153.337296,144.705338 150.885468,147.971161 147.833862,150.518463 
	C145.557556,152.418579 142.506073,153.390030 139.134735,154.916870 
	C137.993454,155.426086 137.517197,155.793427 137.040939,156.160767 
	C137.040939,156.160767 137.034134,156.061523 136.709686,156.045990 
	C135.842072,156.556580 135.298889,157.082718 134.755707,157.608841 
	C134.755707,157.608841 134.432907,157.704895 133.880325,157.440918 
	C127.130547,157.486893 120.933357,157.796860 114.736160,158.106827 
z"/>
<path fill="#061B2D" opacity="1.000000" stroke="none" 
	d="
M161.121613,245.056961 
	C158.241074,254.186996 152.295715,260.757111 143.564453,265.742798 
	C142.602554,266.536469 142.170380,267.030151 141.738190,267.523804 
	C141.738190,267.523804 141.552780,267.674622 141.129272,267.521667 
	C140.260239,267.739563 139.814697,268.110443 139.369141,268.481293 
	C139.369141,268.481293 138.975433,268.359497 138.766327,268.272339 
	C131.706619,268.876251 124.853348,269.543945 118.012398,270.320160 
	C117.627197,270.363861 117.343277,271.300049 117.012222,271.820862 
	C99.642570,267.625183 87.055885,257.940735 83.493835,239.796021 
	C78.312828,213.404480 99.319717,190.487701 123.155426,190.297470 
	C132.376923,190.223892 140.388580,192.892975 148.044830,198.665253 
	C148.674530,199.407318 149.032455,199.569061 149.390366,199.730789 
	C149.390366,199.730789 149.197403,199.760880 149.285553,199.983856 
	C149.922424,200.472122 150.471161,200.737442 151.019882,201.002762 
	C151.308578,201.155121 151.597290,201.307480 151.991516,202.027206 
	C152.566833,202.845688 153.036652,203.096771 153.506470,203.347855 
	C153.506470,203.347855 153.551453,203.468704 153.523895,203.785599 
	C153.811066,204.268051 154.125778,204.433609 154.440491,204.599182 
	C154.440491,204.599182 154.201324,204.895874 154.287186,205.028259 
	C154.656647,205.406876 154.940247,205.653091 155.223846,205.899323 
	C155.223846,205.899323 155.080612,205.908325 155.170624,206.097504 
	C155.522064,206.521347 155.783493,206.756012 156.044907,206.990692 
	C156.044907,206.990692 155.995346,206.997879 156.041473,207.294754 
	C156.504303,208.000885 156.921005,208.410141 157.337708,208.819397 
	C157.337708,208.819397 157.169647,208.856689 157.228302,209.050095 
	C157.555939,209.486176 157.824921,209.728851 158.093903,209.971527 
	C158.093903,209.971527 158.018250,209.974731 158.051880,210.261505 
	C158.468643,210.999069 158.851776,211.449860 159.234924,211.900635 
	C159.234924,211.900635 159.114258,211.916168 159.108612,212.190613 
	C159.487015,212.935226 159.871094,213.405380 160.255157,213.875549 
	C160.255157,213.875549 160.135818,213.895996 160.105270,214.251740 
	C161.045654,220.953705 162.428787,227.273941 162.830887,233.655991 
	C163.067123,237.405533 161.743576,241.253342 161.121613,245.056961 
z"/>
<path fill="#061B2D" opacity="1.000000" stroke="none" 
	d="
M222.060760,474.217560 
	C222.063461,474.563629 221.908844,474.811676 221.022812,475.013489 
	C219.672791,475.790283 218.896896,476.515289 218.121002,477.240295 
	C218.120987,477.240295 218.098267,477.125122 217.824371,477.126892 
	C217.296204,477.581146 217.041946,478.033600 216.787689,478.486023 
	C216.787674,478.486023 216.597382,478.713226 216.220245,478.617615 
	C215.597061,478.754059 215.351013,478.986115 215.104980,479.218201 
	C215.104980,479.218201 215.091690,479.108246 214.810028,479.108337 
	C214.070068,479.507141 213.611771,479.905823 213.153488,480.304535 
	C213.153488,480.304535 213.123230,480.172791 212.850586,480.150330 
	C212.101791,480.511688 211.625671,480.895538 211.149536,481.279358 
	C211.149536,481.279358 211.125443,481.158539 210.755295,481.117462 
	C204.348709,481.715576 198.319550,482.746918 192.273315,482.859406 
	C188.071854,482.937561 183.846909,481.752441 179.632446,481.131714 
	C168.920547,476.679626 161.341446,469.151947 157.566910,458.120087 
	C146.896423,426.933228 172.830582,401.245239 196.577805,402.795227 
	C217.961594,404.190918 231.742126,417.058075 235.177750,438.459717 
	C236.393860,446.035156 235.104355,452.864471 232.255585,459.830994 
	C231.572769,460.658936 231.388214,461.455780 231.203674,462.252594 
	C231.203674,462.252594 231.166046,462.117035 230.922882,462.240570 
	C230.493011,462.968719 230.306320,463.573334 230.119629,464.177948 
	C230.119644,464.177948 230.091461,464.075043 229.887207,464.208374 
	C229.644470,464.700409 229.605988,465.059082 229.567505,465.417755 
	C229.567505,465.417755 229.367432,465.377747 229.113327,465.420166 
	C228.617935,466.039642 228.376648,466.616730 228.135345,467.193817 
	C228.135361,467.193817 228.109512,467.082367 227.921478,467.209290 
	C227.743835,467.662476 227.754242,467.988739 227.764648,468.314972 
	C227.764648,468.314972 227.679230,468.555908 227.279663,468.550537 
	C226.607407,469.066467 226.334717,469.587769 226.062012,470.109070 
	C226.062012,470.109070 226.033401,470.033173 225.825256,470.154877 
	C225.456985,470.596893 225.296875,470.917175 225.136749,471.237488 
	C225.136749,471.237488 225.111832,471.106964 224.905396,471.196747 
	C224.498230,471.593048 224.297485,471.899567 224.096741,472.206055 
	C224.096725,472.206055 224.079865,472.077026 223.878540,472.174347 
	C223.479782,472.576630 223.282333,472.881561 223.084885,473.186523 
	C223.084885,473.186523 223.069885,473.063354 222.863922,473.170105 
	C222.458908,473.590454 222.259827,473.903992 222.060760,474.217560 
z"/>
<path fill="#051A2C" opacity="1.000000" stroke="none" 
	d="
M155.031647,369.764923 
	C152.712463,371.981445 150.393265,374.197998 147.613907,376.735718 
	C146.802109,377.429688 146.450485,377.802429 146.098877,378.175171 
	C146.098877,378.175171 146.068726,378.074249 145.745331,378.098083 
	C143.191269,379.568726 140.960617,381.015533 138.729965,382.462341 
	C138.729965,382.462341 138.547333,382.673859 138.025848,382.510010 
	C129.021423,382.898499 120.538475,383.450867 112.055534,384.003235 
	C98.769768,380.616821 89.730171,372.191406 85.032303,359.619934 
	C76.750191,337.457092 89.474777,312.067047 112.095322,305.643402 
	C126.284828,301.613922 139.561325,303.737610 151.021759,314.740662 
	C151.565216,315.514221 151.865158,315.725708 152.165100,315.937195 
	C152.165100,315.937195 152.046844,315.942963 152.158646,316.137665 
	C152.562805,316.537689 152.855164,316.743011 153.147507,316.948364 
	C153.147507,316.948364 153.043655,316.960724 153.154190,317.158630 
	C153.564316,317.547638 153.863907,317.738770 154.163498,317.929871 
	C154.163498,317.929871 154.058838,317.944214 154.148163,318.140564 
	C154.501572,318.555084 154.765686,318.773254 155.029800,318.991425 
	C155.029800,318.991425 154.993256,318.994354 155.044586,319.297302 
	C155.525681,319.979919 155.955444,320.359558 156.385208,320.739197 
	C156.385208,320.739197 156.232849,320.791290 156.283997,321.002625 
	C156.632996,321.434601 156.930847,321.655243 157.228699,321.875916 
	C157.228683,321.875916 157.120148,321.891754 157.128662,322.174530 
	C157.592377,322.751648 158.047577,323.045959 158.502777,323.340302 
	C158.502777,323.340302 158.606857,323.489777 158.466202,323.931519 
	C158.716232,325.608398 159.107071,326.843445 159.497543,328.078644 
	C162.297348,336.936005 164.779327,345.780243 161.147125,355.070190 
	C159.603394,359.018494 158.428925,363.111176 157.086639,367.138245 
	C157.086655,367.138245 157.047760,367.051788 156.752167,367.072937 
	C155.981598,367.984344 155.506607,368.874634 155.031647,369.764923 
z"/>
<path fill="#051A2D" opacity="1.000000" stroke="none" 
	d="
M301.156311,366.454559 
	C295.141144,375.279846 287.475922,381.873444 276.370636,384.233765 
	C275.801178,383.942413 275.693390,383.855957 275.585571,383.769501 
	C275.698792,383.997955 275.812012,384.226379 275.925232,384.454834 
	C275.925232,384.454834 275.663696,384.667572 275.029999,384.460022 
	C268.895996,384.185303 263.395721,384.118103 257.895416,384.050903 
	C245.924591,382.457153 237.168472,375.671753 231.598831,365.576202 
	C219.364304,343.399689 230.176743,313.102844 255.905457,305.666199 
	C266.484497,302.608368 276.746643,303.476044 286.986633,308.861877 
	C287.858917,309.630096 288.407410,309.827545 288.955872,310.025024 
	C288.955872,310.025024 288.994019,309.995209 289.120789,310.231567 
	C289.535004,310.630920 289.822449,310.793915 290.109863,310.956909 
	C290.109863,310.956909 290.031097,310.969574 290.176147,311.174591 
	C290.674469,311.474976 291.027802,311.570374 291.381104,311.665771 
	C291.381104,311.665771 291.240387,311.724274 291.314880,311.942657 
	C291.735870,312.235657 292.082397,312.310242 292.428894,312.384857 
	C292.428894,312.384857 292.473480,312.481903 292.471191,312.796570 
	C292.987122,313.407745 293.505371,313.704254 294.023590,314.000763 
	C294.383026,314.018677 294.664490,314.176056 295.049561,314.940460 
	C295.505219,315.599274 295.779327,315.790466 296.053467,315.981659 
	C296.053467,315.981659 295.999176,315.998871 296.107758,316.198425 
	C296.401154,316.685547 296.653107,316.890594 296.972198,317.013153 
	C296.972198,317.013153 297.002594,317.001587 297.041046,317.328125 
	C297.537872,317.967010 297.996277,318.279388 298.454681,318.591736 
	C298.454681,318.591736 298.187378,318.916595 298.298950,319.035309 
	C298.734039,319.326385 299.057526,319.498749 299.381012,319.671112 
	C299.381012,319.671112 299.184387,319.839417 299.263123,320.019043 
	C299.617188,320.440369 299.892517,320.682098 300.167847,320.923828 
	C300.167847,320.923828 300.079803,320.934204 300.096619,321.214630 
	C300.564240,321.742126 301.015076,321.989166 301.465912,322.236206 
	C301.465912,322.236206 301.693451,322.417480 301.612549,322.791504 
	C301.766174,323.397705 302.000702,323.629883 302.235229,323.862061 
	C302.235229,323.862061 302.135712,323.884125 302.127869,324.169525 
	C302.511200,324.914642 302.902344,325.374390 303.293488,325.834106 
	C303.293488,325.834106 303.179504,325.866852 303.134705,326.218384 
	C306.317566,336.650818 307.348724,346.787689 303.980286,357.070099 
	C302.963623,360.173553 302.093536,363.325073 301.156311,366.454559 
z"/>
<path fill="#061B2D" opacity="1.000000" stroke="none" 
	d="
M286.030945,154.031281 
	C281.821808,155.348785 277.673645,156.939178 273.384216,157.897354 
	C269.958588,158.662582 266.361023,158.657959 262.329620,158.557480 
	C257.786804,157.158539 253.754105,156.197159 249.721405,155.235779 
	C249.721405,155.235764 249.856506,155.198380 249.769562,154.902740 
	C248.404373,154.103668 247.126114,153.600204 245.847855,153.096756 
	C245.847855,153.096756 245.947800,153.076004 245.807678,152.836960 
	C245.077362,152.411636 244.487198,152.225372 243.897018,152.039093 
	C224.000397,139.124954 222.292419,112.195160 233.506454,96.154343 
	C251.829407,69.944839 283.988007,72.278206 300.503296,94.980606 
	C302.628265,97.901695 303.534821,101.709190 305.010498,105.923325 
	C305.338776,111.859123 306.152496,117.007553 305.842896,122.087524 
	C305.554718,126.816292 304.070435,131.472168 303.112701,136.160126 
	C303.112701,136.160126 303.083191,136.065384 302.837158,136.217957 
	C302.463470,136.993256 302.335846,137.615997 302.208191,138.238739 
	C302.208191,138.238739 302.172546,138.132751 301.883026,138.218170 
	C301.111816,139.267395 300.630127,140.231171 300.148438,141.194962 
	C300.148438,141.194962 300.123749,141.096405 299.889343,141.191254 
	C299.406555,141.583389 299.158173,141.880661 298.657654,142.321594 
	C298.303894,143.030960 298.202271,143.596680 298.100647,144.162384 
	C298.100647,144.162384 298.078339,144.061798 297.869110,144.166962 
	C297.469421,144.582306 297.278961,144.892471 297.088501,145.202652 
	C297.088501,145.202652 297.072876,145.067413 296.875214,145.175186 
	C296.487305,145.597916 296.297058,145.912872 296.106812,146.227844 
	C296.106812,146.227844 296.087158,146.077820 295.888092,146.184631 
	C295.481842,146.609238 295.274658,146.927017 295.067474,147.244797 
	C295.097687,147.573471 294.970459,147.821350 294.199280,148.124664 
	C293.496155,148.566193 293.279572,148.871506 293.063019,149.176819 
	C293.063019,149.176819 293.055511,149.073242 292.751556,149.074921 
	C291.706024,149.840240 290.964478,150.603882 290.222900,151.367523 
	C290.222900,151.367523 290.174683,151.192047 289.977478,151.252930 
	C289.541809,151.600891 289.303314,151.888000 289.064819,152.175110 
	C289.064819,152.175095 289.055328,152.074341 288.770447,152.078827 
	C288.059692,152.510925 287.633820,152.938522 287.207947,153.366119 
	C287.207947,153.366119 287.164246,153.230087 286.983185,153.191284 
	C286.545074,153.445419 286.288025,153.738358 286.030945,154.031281 
z"/>
<path fill="#061B2D" opacity="1.000000" stroke="none" 
	d="
M261.022308,271.835205 
	C250.082230,269.132599 240.262192,264.781677 233.412857,255.112900 
	C218.337952,233.832535 229.176514,200.891434 253.986938,192.537384 
	C265.381134,188.700775 276.135223,189.834213 286.988831,195.808334 
	C287.906769,196.577332 288.487976,196.770340 289.069153,196.963348 
	C289.069153,196.963348 289.016235,197.001678 289.152405,197.206879 
	C289.620605,197.537552 289.952576,197.663025 290.284576,197.788483 
	C290.284576,197.788483 290.152588,197.826355 290.258392,198.027252 
	C290.705414,198.273254 291.046661,198.318375 291.387878,198.363495 
	C291.387878,198.363495 291.462219,198.457962 291.473022,198.794617 
	C292.019012,199.403778 292.554199,199.676300 293.089355,199.948807 
	C293.089355,199.948807 293.017120,199.977295 293.134094,200.181671 
	C293.544220,200.572556 293.837311,200.759048 294.130432,200.945526 
	C294.130432,200.945526 294.041718,200.955200 294.150757,201.160110 
	C294.557312,201.554153 294.854889,201.743286 295.152435,201.932419 
	C295.152435,201.932419 295.051270,201.943130 295.159424,202.146515 
	C295.568573,202.540390 295.869537,202.730865 296.170502,202.921341 
	C296.170502,202.921341 296.061768,202.935074 296.164368,203.137146 
	C296.563965,203.536148 296.860901,203.733047 297.157867,203.929947 
	C297.157867,203.929947 297.070801,203.938431 297.093323,204.234375 
	C297.761932,205.011566 298.408020,205.492828 299.054108,205.974091 
	C299.054108,205.974091 298.999176,205.996246 299.034912,206.288055 
	C299.473022,207.001266 299.875366,207.422653 300.277710,207.844025 
	C300.277710,207.844025 300.164307,207.875488 300.156097,208.150833 
	C300.592621,208.714600 301.037384,209.003021 301.482117,209.291443 
	C301.482117,209.291443 301.655121,209.455063 301.581238,209.808472 
	C301.738220,210.407608 301.969116,210.653320 302.200012,210.899033 
	C302.200012,210.899033 302.103271,210.910461 302.104431,211.194153 
	C302.490662,211.937683 302.875763,212.397552 303.260864,212.857422 
	C303.260864,212.857407 303.150238,212.881195 303.115967,213.235275 
	C303.160309,214.240067 303.119324,214.933731 303.335266,215.535126 
	C307.104340,226.032028 307.352753,236.457184 302.943207,246.866562 
	C302.386353,248.181061 302.384949,249.730865 302.126221,251.171661 
	C302.126221,251.171661 302.103699,251.080536 301.913300,251.206848 
	C301.732910,251.651855 301.742920,251.970535 301.752930,252.289215 
	C301.752930,252.289215 301.676544,252.527679 301.270264,252.540924 
	C300.622375,253.098267 300.380768,253.642349 300.139160,254.186432 
	C300.139160,254.186432 300.115021,254.091858 299.904816,254.170868 
	C299.471588,254.706345 299.248596,255.162811 299.025574,255.619263 
	C296.665863,257.974365 294.306152,260.329437 291.414429,262.985840 
	C290.621582,263.606781 290.360718,263.926422 290.099884,264.246063 
	C290.099884,264.246063 290.083832,264.120178 289.797607,264.104065 
	C288.700287,264.785187 287.889160,265.482422 287.078003,266.179657 
	C287.078003,266.179657 287.071594,266.081238 286.724548,266.067017 
	C281.162476,267.564270 275.988556,269.245667 270.716858,270.523376 
	C267.564545,271.287354 264.258972,271.419220 261.022308,271.835205 
z"/>
<path fill="#0B0E15" opacity="1.000000" stroke="none" 
	d="
M157.395660,366.976501 
	C158.428925,363.111176 159.603394,359.018494 161.147125,355.070190 
	C164.779327,345.780243 162.297348,336.936005 159.497543,328.078644 
	C159.107071,326.843445 158.716232,325.608398 158.506012,324.013428 
	C166.619171,338.228546 165.993652,352.608826 157.395660,366.976501 
z"/>
<path fill="#0D131C" opacity="1.000000" stroke="none" 
	d="
M301.465332,366.256927 
	C302.093536,363.325073 302.963623,360.173553 303.980286,357.070099 
	C307.348724,346.787689 306.317566,336.650818 303.151855,326.161621 
	C310.544769,339.467590 308.952789,352.863190 301.465332,366.256927 
z"/>
<path fill="#0D131C" opacity="1.000000" stroke="none" 
	d="
M302.444153,250.998474 
	C302.384949,249.730865 302.386353,248.181061 302.943207,246.866562 
	C307.352753,236.457184 307.104340,226.032028 303.335266,215.535126 
	C303.119324,214.933731 303.160309,214.240067 303.132996,213.181320 
	C310.222168,225.536942 308.841248,238.207184 302.444153,250.998474 
z"/>
<path fill="#080B11" opacity="1.000000" stroke="none" 
	d="
M157.661072,140.137421 
	C158.661682,136.516571 159.834961,132.633041 161.193497,128.815445 
	C164.663742,119.063911 163.003754,109.737686 159.055237,100.561646 
	C158.745392,99.841568 158.601379,99.050125 158.573547,97.945572 
	C167.063644,111.873230 165.632538,125.952019 157.661072,140.137421 
z"/>
<path fill="#0D131C" opacity="1.000000" stroke="none" 
	d="
M303.420349,135.960663 
	C304.070435,131.472168 305.554718,126.816292 305.842896,122.087524 
	C306.152496,117.007553 305.338776,111.859123 305.031616,106.303696 
	C310.441101,115.343452 307.551666,124.662186 304.500977,133.973358 
	C304.299652,134.587769 303.988190,135.166107 303.420349,135.960663 
z"/>
<path fill="#080C12" opacity="1.000000" stroke="none" 
	d="
M179.847290,481.455383 
	C183.846909,481.752441 188.071854,482.937561 192.273315,482.859406 
	C198.319550,482.746918 204.348709,481.715576 210.814056,481.135925 
	C200.937500,486.100189 190.520065,485.021881 179.847290,481.455383 
z"/>
<path fill="#080B11" opacity="1.000000" stroke="none" 
	d="
M161.459595,244.897705 
	C161.743576,241.253342 163.067123,237.405533 162.830887,233.655991 
	C162.428787,227.273941 161.045654,220.953705 160.120819,214.193237 
	C165.362274,223.853790 165.290787,234.206009 161.459595,244.897705 
z"/>
<path fill="#1B2128" opacity="1.000000" stroke="none" 
	d="
M112.342712,384.252747 
	C120.538475,383.450867 129.021423,382.898499 137.890793,382.545837 
	C129.910034,385.987000 121.386002,386.938782 112.342712,384.252747 
z"/>
<path fill="#080B11" opacity="1.000000" stroke="none" 
	d="
M261.477081,271.924255 
	C264.258972,271.419220 267.564545,271.287354 270.716858,270.523376 
	C275.988556,269.245667 281.162476,267.564270 286.772095,266.080109 
	C279.636414,271.841888 270.874878,272.315369 261.477081,271.924255 
z"/>
<path fill="#0B0E15" opacity="1.000000" stroke="none" 
	d="
M117.470390,271.899139 
	C117.343277,271.300049 117.627197,270.363861 118.012398,270.320160 
	C124.853348,269.543945 131.706619,268.876251 138.966980,268.318237 
	C132.682495,272.395264 125.305794,272.187958 117.470390,271.899139 
z"/>
<path fill="#161D26" opacity="1.000000" stroke="none" 
	d="
M258.069061,384.405731 
	C263.395721,384.118103 268.895996,384.185303 274.862854,384.438171 
	C269.633820,384.669403 263.938263,384.714996 258.069061,384.405731 
z"/>
<path fill="#05070C" opacity="1.000000" stroke="none" 
	d="
M114.994171,158.470200 
	C120.933357,157.796860 127.130547,157.486893 133.756622,157.326630 
	C127.874397,157.928757 121.563286,158.381165 114.994171,158.470200 
z"/>
<path fill="#050A13" opacity="1.000000" stroke="none" 
	d="
M249.948029,155.526459 
	C253.754105,156.197159 257.786804,157.158539 261.902283,158.478760 
	C258.048248,157.830780 254.111465,156.823959 249.948029,155.526459 
z"/>
<path fill="#1B2128" opacity="1.000000" stroke="none" 
	d="
M139.033142,382.322998 
	C140.960617,381.015533 143.191269,379.568726 145.791901,378.122681 
	C143.886688,379.476837 141.611496,380.830231 139.033142,382.322998 
z"/>
<path fill="#050A13" opacity="1.000000" stroke="none" 
	d="
M246.004486,153.395081 
	C247.126114,153.600204 248.404373,154.103668 249.751617,154.970505 
	C248.600769,154.787079 247.380936,154.240250 246.004486,153.395081 
z"/>
<path fill="#0B0E15" opacity="1.000000" stroke="none" 
	d="
M155.335251,369.734802 
	C155.506607,368.874634 155.981598,367.984344 156.797638,367.086304 
	C156.638748,367.953918 156.138809,368.829285 155.335251,369.734802 
z"/>
<path fill="#02050D" opacity="1.000000" stroke="none" 
	d="
M290.531067,151.275452 
	C290.964478,150.603882 291.706024,149.840240 292.802490,149.085022 
	C292.384674,149.790100 291.611938,150.486740 290.531067,151.275452 
z"/>
<path fill="#080B11" opacity="1.000000" stroke="none" 
	d="
M287.395752,266.114044 
	C287.889160,265.482422 288.700287,264.785187 289.859497,264.118042 
	C289.376251,264.781586 288.544891,265.415009 287.395752,266.114044 
z"/>
<path fill="#080C12" opacity="1.000000" stroke="none" 
	d="
M218.438141,477.164459 
	C218.896896,476.515289 219.672791,475.790283 220.795929,475.051025 
	C220.347183,475.720734 219.551224,476.404694 218.438141,477.164459 
z"/>
<path fill="#0D131C" opacity="1.000000" stroke="none" 
	d="
M300.439484,141.055161 
	C300.630127,140.231171 301.111816,139.267395 301.936890,138.233185 
	C301.763672,139.080276 301.247101,139.997818 300.439484,141.055161 
z"/>
<path fill="#080C12" opacity="1.000000" stroke="none" 
	d="
M231.461960,462.105042 
	C231.388214,461.455780 231.572769,460.658936 231.951614,460.056580 
	C232.004028,460.819885 231.862137,461.388672 231.461960,462.105042 
z"/>
<path fill="#05070C" opacity="1.000000" stroke="none" 
	d="
M135.040833,157.519196 
	C135.298889,157.082718 135.842072,156.556580 136.758942,156.052917 
	C136.530426,156.526764 135.928207,156.978149 135.040833,157.519196 
z"/>
<path fill="#0B0E15" opacity="1.000000" stroke="none" 
	d="
M141.979691,267.413452 
	C142.170380,267.030151 142.602554,266.536469 143.364624,266.036499 
	C143.203415,266.454498 142.712311,266.878815 141.979691,267.413452 
z"/>
<path fill="#0D131C" opacity="1.000000" stroke="none" 
	d="
M298.958801,205.689774 
	C298.408020,205.492828 297.761932,205.011566 297.103271,204.191772 
	C297.681641,204.370651 298.272583,204.888046 298.958801,205.689774 
z"/>
<path fill="#0B0E15" opacity="1.000000" stroke="none" 
	d="
M139.621643,268.408569 
	C139.814697,268.110443 140.260239,267.739563 141.013550,267.551453 
	C140.838943,267.934753 140.356537,268.135315 139.621643,268.408569 
z"/>
<path fill="#080C12" opacity="1.000000" stroke="none" 
	d="
M213.457611,480.233521 
	C213.611771,479.905823 214.070068,479.507141 214.863403,479.123169 
	C214.719528,479.479401 214.240646,479.820953 213.457611,480.233521 
z"/>
<path fill="#080C12" opacity="1.000000" stroke="none" 
	d="
M211.457489,481.222412 
	C211.625671,480.895538 212.101791,480.511688 212.916077,480.166992 
	C212.757965,480.525909 212.261688,480.845703 211.457489,481.222412 
z"/>
<path fill="#0D131C" opacity="1.000000" stroke="none" 
	d="
M299.277344,255.555847 
	C299.248596,255.162811 299.471588,254.706345 299.952576,254.180984 
	C299.983368,254.572205 299.756226,255.032333 299.277344,255.555847 
z"/>
<path fill="#0D131C" opacity="1.000000" stroke="none" 
	d="
M300.382874,254.092331 
	C300.380768,253.642349 300.622375,253.098267 301.180695,252.628433 
	C301.207123,253.134537 300.916840,253.566376 300.382874,254.092331 
z"/>
<path fill="#080C12" opacity="1.000000" stroke="none" 
	d="
M226.296021,470.008698 
	C226.334717,469.587769 226.607407,469.066467 227.185852,468.637299 
	C227.171066,469.122437 226.850540,469.515381 226.296021,470.008698 
z"/>
<path fill="#080B11" opacity="1.000000" stroke="none" 
	d="
M160.194763,213.566772 
	C159.871094,213.405380 159.487015,212.935226 159.122147,212.131317 
	C159.472351,212.284363 159.803360,212.771179 160.194763,213.566772 
z"/>
<path fill="#0D131C" opacity="1.000000" stroke="none" 
	d="
M303.203186,212.552032 
	C302.875763,212.397552 302.490662,211.937683 302.119324,211.147766 
	C302.470551,211.294037 302.808044,211.770355 303.203186,212.552032 
z"/>
<path fill="#080C12" opacity="1.000000" stroke="none" 
	d="
M217.000824,478.349609 
	C217.041946,478.033600 217.296204,477.581146 217.881699,477.139465 
	C217.879944,477.504608 217.546967,477.858917 217.000824,478.349609 
z"/>
<path fill="#1B2128" opacity="1.000000" stroke="none" 
	d="
M146.369797,378.123169 
	C146.450485,377.802429 146.802109,377.429688 147.425125,377.023804 
	C147.344589,377.350830 146.992661,377.710999 146.369797,378.123169 
z"/>
<path fill="#0D131C" opacity="1.000000" stroke="none" 
	d="
M288.816772,309.760925 
	C288.407410,309.827545 287.858917,309.630096 287.163391,309.173248 
	C287.570099,309.108185 288.123871,309.302490 288.816772,309.760925 
z"/>
<path fill="#0D131C" opacity="1.000000" stroke="none" 
	d="
M293.940277,313.741364 
	C293.505371,313.704254 292.987122,313.407745 292.524597,312.795441 
	C293.005829,312.813751 293.431396,313.147858 293.940277,313.741364 
z"/>
<path fill="#0D131C" opacity="1.000000" stroke="none" 
	d="
M298.334900,318.341980 
	C297.996277,318.279388 297.537872,317.967010 297.031433,317.341553 
	C297.393951,317.383057 297.804535,317.737640 298.334900,318.341980 
z"/>
<path fill="#0B0E15" opacity="1.000000" stroke="none" 
	d="
M156.289902,320.465637 
	C155.955444,320.359558 155.525681,319.979919 155.055176,319.282257 
	C155.407806,319.373505 155.801193,319.782806 156.289902,320.465637 
z"/>
<path fill="#0D131C" opacity="1.000000" stroke="none" 
	d="
M301.338013,322.017578 
	C301.015076,321.989166 300.564240,321.742126 300.107056,321.171539 
	C300.470490,321.164978 300.840271,321.481964 301.338013,322.017578 
z"/>
<path fill="#0B0E15" opacity="1.000000" stroke="none" 
	d="
M158.361511,323.116150 
	C158.047577,323.045959 157.592377,322.751648 157.145142,322.122223 
	C157.508820,322.155426 157.864532,322.523743 158.361511,323.116150 
z"/>
<path fill="#080C12" opacity="1.000000" stroke="none" 
	d="
M228.397430,467.077728 
	C228.376648,466.616730 228.617935,466.039642 229.198242,465.476685 
	C229.244675,465.981110 228.952103,466.471375 228.397430,467.077728 
z"/>
<path fill="#080C12" opacity="1.000000" stroke="none" 
	d="
M230.395660,464.032227 
	C230.306320,463.573334 230.493011,462.968719 230.992249,462.252258 
	C231.093750,462.722473 230.882721,463.304504 230.395660,464.032227 
z"/>
<path fill="#0D131C" opacity="1.000000" stroke="none" 
	d="
M301.353088,209.065796 
	C301.037384,209.003021 300.592621,208.714600 300.171265,208.093979 
	C300.537811,208.121231 300.880920,208.480682 301.353088,209.065796 
z"/>
<path fill="#0D131C" opacity="1.000000" stroke="none" 
	d="
M303.230530,325.529663 
	C302.902344,325.374390 302.511200,324.914642 302.143860,324.121124 
	C302.500946,324.266632 302.834229,324.745941 303.230530,325.529663 
z"/>
<path fill="#080B11" opacity="1.000000" stroke="none" 
	d="
M159.165344,211.600418 
	C158.851776,211.449860 158.468643,210.999069 158.066559,210.226624 
	C158.397018,210.370026 158.746399,210.835114 159.165344,211.600418 
z"/>
<path fill="#080B11" opacity="1.000000" stroke="none" 
	d="
M157.278534,95.501694 
	C156.936096,95.381622 156.511124,94.967216 156.069580,94.225006 
	C156.434006,94.333923 156.815002,94.770630 157.278534,95.501694 
z"/>
<path fill="#080B11" opacity="1.000000" stroke="none" 
	d="
M158.396881,97.006477 
	C158.075317,96.945541 157.626770,96.660820 157.218704,96.035080 
	C157.596100,96.056946 157.932999,96.419823 158.396881,97.006477 
z"/>
<path fill="#0D131C" opacity="1.000000" stroke="none" 
	d="
M302.481750,138.076126 
	C302.335846,137.615997 302.463470,136.993256 302.886780,136.219055 
	C303.040070,136.682922 302.897705,137.298218 302.481750,138.076126 
z"/>
<path fill="#080B11" opacity="1.000000" stroke="none" 
	d="
M156.319061,141.744415 
	C156.315262,141.281097 156.583893,140.814178 157.143768,140.349854 
	C157.153839,140.815247 156.872665,141.278046 156.319061,141.744415 
z"/>
<path fill="#0D131C" opacity="1.000000" stroke="none" 
	d="
M298.909821,142.177933 
	C299.158173,141.880661 299.406555,141.583389 299.938843,141.202545 
	C299.973450,141.632782 299.724091,142.146606 299.203430,142.620758 
	C298.932098,142.581055 298.909821,142.177933 298.909821,142.177933 
z"/>
<path fill="#02050D" opacity="1.000000" stroke="none" 
	d="
M298.657654,142.321594 
	C298.909821,142.177933 298.932098,142.581055 298.962463,142.780640 
	C298.862244,143.302612 298.731659,143.624985 298.350830,144.054871 
	C298.202271,143.596680 298.303894,143.030960 298.657654,142.321594 
z"/>
<path fill="#050A13" opacity="1.000000" stroke="none" 
	d="
M244.003036,152.345367 
	C244.487198,152.225372 245.077362,152.411636 245.804199,152.887878 
	C245.330261,153.002441 244.719666,152.827042 244.003036,152.345367 
z"/>
<path fill="#02050D" opacity="1.000000" stroke="none" 
	d="
M287.506348,153.284134 
	C287.633820,152.938522 288.059692,152.510925 288.820190,152.088043 
	C288.704834,152.462570 288.254791,152.832352 287.506348,153.284134 
z"/>
<path fill="#02050D" opacity="1.000000" stroke="none" 
	d="
M286.297333,154.005280 
	C286.288025,153.738358 286.545074,153.445419 287.051697,153.211609 
	C287.055389,153.506897 286.809570,153.743088 286.297333,154.005280 
z"/>
<path fill="#05070C" opacity="1.000000" stroke="none" 
	d="
M137.362854,156.096130 
	C137.517197,155.793427 137.993454,155.426086 138.791748,155.051056 
	C138.637466,155.372757 138.161118,155.702133 137.362854,156.096130 
z"/>
<path fill="#0D131C" opacity="1.000000" stroke="none" 
	d="
M288.904724,196.704437 
	C288.487976,196.770340 287.906769,196.577332 287.184753,196.101715 
	C287.609375,196.027924 288.174835,196.236725 288.904724,196.704437 
z"/>
<path fill="#0D131C" opacity="1.000000" stroke="none" 
	d="
M292.998108,199.691071 
	C292.554199,199.676300 292.019012,199.403778 291.530884,198.810867 
	C292.020905,198.804764 292.463867,199.119049 292.998108,199.691071 
z"/>
<path fill="#080B11" opacity="1.000000" stroke="none" 
	d="
M150.905975,200.728790 
	C150.471161,200.737442 149.922424,200.472122 149.316559,199.891251 
	C149.770294,199.868729 150.281189,200.161789 150.905975,200.728790 
z"/>
<path fill="#080B11" opacity="1.000000" stroke="none" 
	d="
M153.352509,203.132858 
	C153.036652,203.096771 152.566833,202.845688 152.050446,202.275635 
	C152.402115,202.277054 152.800323,202.597458 153.352509,203.132858 
z"/>
<path fill="#0D131C" opacity="1.000000" stroke="none" 
	d="
M300.205505,207.548950 
	C299.875366,207.422653 299.473022,207.001266 299.049194,206.262085 
	C299.396210,206.380829 299.764771,206.817337 300.205505,207.548950 
z"/>
<path fill="#080B11" opacity="1.000000" stroke="none" 
	d="
M157.252228,208.531860 
	C156.921005,208.410141 156.504303,208.000885 156.052612,207.272339 
	C156.400635,207.383469 156.783676,207.813904 157.252228,208.531860 
z"/>
<path fill="#080C12" opacity="1.000000" stroke="none" 
	d="
M222.322922,474.110565 
	C222.259827,473.903992 222.458908,473.590454 222.925583,473.176910 
	C222.990494,473.385803 222.787796,473.694672 222.322922,474.110565 
z"/>
<path fill="#161D26" opacity="1.000000" stroke="none" 
	d="
M275.949158,384.443115 
	C275.812012,384.226379 275.698792,383.997955 275.585571,383.769501 
	C275.693390,383.855957 275.801178,383.942413 275.966522,384.237976 
	C276.024078,384.447052 275.973083,384.431366 275.949158,384.443115 
z"/>
<path fill="#02050D" opacity="1.000000" stroke="none" 
	d="
M296.367432,146.123611 
	C296.297058,145.912872 296.487305,145.597916 296.942902,145.182404 
	C297.014893,145.394348 296.821503,145.706863 296.367432,146.123611 
z"/>
<path fill="#02050D" opacity="1.000000" stroke="none" 
	d="
M297.348816,145.101273 
	C297.278961,144.892471 297.469421,144.582306 297.920471,144.170868 
	C297.990387,144.379715 297.799744,144.689804 297.348816,145.101273 
z"/>
<path fill="#080B11" opacity="1.000000" stroke="none" 
	d="
M155.984192,206.722351 
	C155.783493,206.756012 155.522064,206.521347 155.184433,206.027069 
	C155.379974,205.996323 155.651733,206.225159 155.984192,206.722351 
z"/>
<path fill="#080C12" opacity="1.000000" stroke="none" 
	d="
M229.743210,465.235596 
	C229.605988,465.059082 229.644470,464.700409 229.940430,464.212097 
	C230.104904,464.406128 230.011917,464.729797 229.743210,465.235596 
z"/>
<path fill="#0D131C" opacity="1.000000" stroke="none" 
	d="
M301.876312,252.112732 
	C301.742920,251.970535 301.732910,251.651855 301.959473,251.215332 
	C302.128326,251.376541 302.062866,251.656128 301.876312,252.112732 
z"/>
<path fill="#080C12" opacity="1.000000" stroke="none" 
	d="
M227.888657,468.133545 
	C227.754242,467.988739 227.743835,467.662476 227.978149,467.217041 
	C228.158218,467.383911 228.088150,467.668671 227.888657,468.133545 
z"/>
<path fill="#080C12" opacity="1.000000" stroke="none" 
	d="
M225.389496,471.127319 
	C225.296875,470.917175 225.456985,470.596893 225.865540,470.159485 
	C225.956726,470.367279 225.799484,470.692230 225.389496,471.127319 
z"/>
<path fill="#080C12" opacity="1.000000" stroke="none" 
	d="
M224.359253,472.111816 
	C224.297485,471.899567 224.498230,471.593048 224.970917,471.207703 
	C225.035828,471.425110 224.828796,471.721313 224.359253,472.111816 
z"/>
<path fill="#080C12" opacity="1.000000" stroke="none" 
	d="
M223.345337,473.090210 
	C223.282333,472.881561 223.479782,472.576630 223.943054,472.182709 
	C224.007858,472.393799 223.806808,472.693878 223.345337,473.090210 
z"/>
<path fill="#02050D" opacity="1.000000" stroke="none" 
	d="
M293.333008,149.078400 
	C293.279572,148.871506 293.496155,148.566193 293.983154,148.161560 
	C294.036743,148.368149 293.819885,148.674072 293.333008,149.078400 
z"/>
<path fill="#080B11" opacity="1.000000" stroke="none" 
	d="
M158.036697,209.697266 
	C157.824921,209.728851 157.555939,209.486176 157.243103,208.965302 
	C157.459320,208.932404 157.719406,209.177689 158.036697,209.697266 
z"/>
<path fill="#0D131C" opacity="1.000000" stroke="none" 
	d="
M302.162903,210.679932 
	C301.969116,210.653320 301.738220,210.407608 301.625610,209.918945 
	C301.970886,209.889099 302.098175,210.150696 302.162903,210.679932 
z"/>
<path fill="#080C12" opacity="1.000000" stroke="none" 
	d="
M215.317719,479.177948 
	C215.351013,478.986115 215.597061,478.754059 216.078094,478.659485 
	C216.090958,478.999542 215.830093,479.113129 215.317719,479.177948 
z"/>
<path fill="#080B11" opacity="1.000000" stroke="none" 
	d="
M156.032684,93.700790 
	C155.830704,93.742393 155.551437,93.516663 155.191910,93.026413 
	C155.392899,92.985748 155.674149,93.209595 156.032684,93.700790 
z"/>
<path fill="#080B11" opacity="1.000000" stroke="none" 
	d="
M155.162491,92.624039 
	C154.942612,92.650970 154.652176,92.410706 154.359650,91.873718 
	C154.602341,91.836952 154.847137,92.096893 155.162491,92.624039 
z"/>
<path fill="#080B11" opacity="1.000000" stroke="none" 
	d="
M154.313385,91.396790 
	C154.082382,91.480797 153.738159,91.323463 153.364471,90.863678 
	C153.623398,90.759308 153.911804,90.957382 154.313385,91.396790 
z"/>
<path fill="#080B11" opacity="1.000000" stroke="none" 
	d="
M153.318497,90.406395 
	C153.086380,90.482445 152.745346,90.315453 152.385071,89.843781 
	C152.647079,89.747192 152.928329,89.955269 153.318497,90.406395 
z"/>
<path fill="#080B11" opacity="1.000000" stroke="none" 
	d="
M152.316895,89.374680 
	C152.092346,89.469765 151.739929,89.326797 151.332153,88.884766 
	C151.580887,88.769341 151.884933,88.952988 152.316895,89.374680 
z"/>
<path fill="#080B11" opacity="1.000000" stroke="none" 
	d="
M151.260834,88.462097 
	C151.041321,88.560074 150.681717,88.400749 150.201920,87.959427 
	C150.428070,87.853218 150.774414,88.029007 151.260834,88.462097 
z"/>
<path fill="#0D131C" opacity="1.000000" stroke="none" 
	d="
M299.295258,319.428925 
	C299.057526,319.498749 298.734039,319.326385 298.413269,318.858704 
	C298.680481,318.771179 298.944977,318.978973 299.295258,319.428925 
z"/>
<path fill="#0D131C" opacity="1.000000" stroke="none" 
	d="
M295.065338,201.671661 
	C294.854889,201.743286 294.557312,201.554153 294.155182,201.115723 
	C294.359802,201.047913 294.669037,201.229416 295.065338,201.671661 
z"/>
<path fill="#0D131C" opacity="1.000000" stroke="none" 
	d="
M290.018066,310.706238 
	C289.822449,310.793915 289.535004,310.630920 289.114929,310.255005 
	C289.296936,310.179932 289.611603,310.317780 290.018066,310.706238 
z"/>
<path fill="#0D131C" opacity="1.000000" stroke="none" 
	d="
M291.226715,311.439148 
	C291.027802,311.570374 290.674469,311.474976 290.176331,311.134705 
	C290.378418,310.997375 290.725372,311.104950 291.226715,311.439148 
z"/>
<path fill="#0D131C" opacity="1.000000" stroke="none" 
	d="
M292.283966,312.192444 
	C292.082397,312.310242 291.735870,312.235657 291.340942,311.871063 
	C291.632050,311.604828 291.914215,311.744446 292.283966,312.192444 
z"/>
<path fill="#0B0E15" opacity="1.000000" stroke="none" 
	d="
M152.083771,315.657593 
	C151.865158,315.725708 151.565216,315.514221 151.161606,315.041260 
	C151.372757,314.979156 151.687607,315.178589 152.083771,315.657593 
z"/>
<path fill="#0D131C" opacity="1.000000" stroke="none" 
	d="
M295.975403,315.727753 
	C295.779327,315.790466 295.505219,315.599274 295.118591,315.179871 
	C295.303162,315.125732 295.600250,315.299805 295.975403,315.727753 
z"/>
<path fill="#0B0E15" opacity="1.000000" stroke="none" 
	d="
M153.052582,316.688721 
	C152.855164,316.743011 152.562805,316.537689 152.166779,316.079041 
	C152.361298,316.026825 152.659470,316.227936 153.052582,316.688721 
z"/>
<path fill="#0D131C" opacity="1.000000" stroke="none" 
	d="
M296.919525,316.756470 
	C296.653107,316.890594 296.401154,316.685547 296.117249,316.171570 
	C296.301086,316.130035 296.583954,316.314941 296.919525,316.756470 
z"/>
<path fill="#0B0E15" opacity="1.000000" stroke="none" 
	d="
M154.066605,317.670532 
	C153.863907,317.738770 153.564316,317.547638 153.156860,317.106384 
	C153.355896,317.041229 153.662811,317.226227 154.066605,317.670532 
z"/>
<path fill="#080B11" opacity="1.000000" stroke="none" 
	d="
M149.253540,199.471771 
	C149.032455,199.569061 148.674530,199.407318 148.197723,198.963440 
	C148.424789,198.858444 148.770737,199.035599 149.253540,199.471771 
z"/>
<path fill="#0B0E15" opacity="1.000000" stroke="none" 
	d="
M154.985718,318.719666 
	C154.765686,318.773254 154.501572,318.555084 154.153244,318.087982 
	C154.359879,318.042023 154.650757,318.244965 154.985718,318.719666 
z"/>
<path fill="#0D131C" opacity="1.000000" stroke="none" 
	d="
M291.230530,198.185425 
	C291.046661,198.318375 290.705414,198.273254 290.274414,197.960480 
	C290.508881,197.718323 290.805084,197.823166 291.230530,198.185425 
z"/>
<path fill="#02050D" opacity="1.000000" stroke="none" 
	d="
M295.332886,147.133057 
	C295.274658,146.927017 295.481842,146.609238 295.963318,146.192505 
	C296.024536,146.402802 295.811432,146.712051 295.332886,147.133057 
z"/>
<path fill="#0D131C" opacity="1.000000" stroke="none" 
	d="
M300.097534,320.661621 
	C299.892517,320.682098 299.617188,320.440369 299.336426,319.912354 
	C299.563049,319.883881 299.795135,320.141663 300.097534,320.661621 
z"/>
<path fill="#0B0E15" opacity="1.000000" stroke="none" 
	d="
M157.156448,321.608093 
	C156.930847,321.655243 156.632996,321.434601 156.305115,320.924927 
	C156.544800,320.870697 156.814499,321.105469 157.156448,321.608093 
z"/>
<path fill="#0D131C" opacity="1.000000" stroke="none" 
	d="
M290.165161,197.538086 
	C289.952576,197.663025 289.620605,197.537552 289.154175,197.174271 
	C289.361725,197.053528 289.703766,197.170609 290.165161,197.538086 
z"/>
<path fill="#0D131C" opacity="1.000000" stroke="none" 
	d="
M296.081268,202.659485 
	C295.869537,202.730865 295.568573,202.540390 295.165710,202.096039 
	C295.373199,202.027328 295.682617,202.212494 296.081268,202.659485 
z"/>
<path fill="#0D131C" opacity="1.000000" stroke="none" 
	d="
M302.198914,323.651917 
	C302.000702,323.629883 301.766174,323.397705 301.656128,322.930298 
	C302.000366,322.896698 302.127686,323.145599 302.198914,323.651917 
z"/>
<path fill="#0D131C" opacity="1.000000" stroke="none" 
	d="
M297.076782,203.663818 
	C296.860901,203.733047 296.563965,203.536148 296.171143,203.082779 
	C296.382080,203.016769 296.688904,203.207230 297.076782,203.663818 
z"/>
<path fill="#080B11" opacity="1.000000" stroke="none" 
	d="
M154.363113,204.387863 
	C154.125778,204.433609 153.811066,204.268051 153.578430,203.820007 
	C153.921295,203.699265 154.129700,203.912277 154.363113,204.387863 
z"/>
<path fill="#080B11" opacity="1.000000" stroke="none" 
	d="
M155.162384,205.632568 
	C154.940247,205.653091 154.656647,205.406876 154.385162,204.864838 
	C154.631805,204.834625 154.866364,205.100220 155.162384,205.632568 
z"/>
<path fill="#080B11" opacity="1.000000" stroke="none" 
	d="
M290.396057,264.142822 
	C290.360718,263.926422 290.621582,263.606781 291.193451,263.212585 
	C291.233704,263.438538 290.962982,263.739075 290.396057,264.142822 
z"/>
<path fill="#02050D" opacity="1.000000" stroke="none" 
	d="
M289.332642,152.087646 
	C289.303314,151.888000 289.541809,151.600891 290.067261,151.267883 
	C290.102966,151.481369 289.851715,151.740784 289.332642,152.087646 
z"/>
<path fill="#0D131C" opacity="1.000000" stroke="none" 
	d="
M294.041626,200.688263 
	C293.837311,200.759048 293.544220,200.572556 293.141968,200.143661 
	C293.339478,200.077835 293.646149,200.254410 294.041626,200.688263 
z"/>
</svg>